PathFileType  4	(X/Y/Z) C:\Users\antoi\Documents\MyRepositories\mobilecap\ResultsAnalysis
DataRate	CameraRate	NumFrames	NumMarkers	Units	OrigDataRate	OrigDataStartFrame	OrigNumFrames
100.0	100.0	4	51	mm	100.0	80	158
Frame#	Time	r_knee			r_shank_antsup			r_ankle			r_calc			r_5meta			r_toe			L_knee			L_shank_antsup			L_ankle			L_calc			L_5meta			L_toe			r_sh2			r_sh3			r_sh4			L_sh2			L_sh3			r_thigh1			r_thigh2			r_thigh3			r_thigh4			r_thigh5			L_thigh1			L_thigh2			L_thigh3			L_thigh4			r.ASIS			r.PSIS			L.ASIS			L.PSIS			C7			R_Shoulder			L_Shoulder			R_Sternum			L_Sternum			R_humerus			R_elbow_med			R_elbow_lat			R_forearm			R_wrist_radius			R_wrist_ulna			L_humerus			L_elbow_med			L_elbow_lat			L_forearm			L_wrist_radius			L_wrist_ulna			R_HJC			L_HJC			R_HJC_reg			L_HJC_reg			
		X1	Y1	Z1	X2	Y2	Z2	X3	Y3	Z3	X4	Y4	Z4	X5	Y5	Z5	X6	Y6	Z6	X7	Y7	Z7	X8	Y8	Z8	X9	Y9	Z9	X10	Y10	Z10	X11	Y11	Z11	X12	Y12	Z12	X13	Y13	Z13	X14	Y14	Z14	X15	Y15	Z15	X16	Y16	Z16	X17	Y17	Z17	X18	Y18	Z18	X19	Y19	Z19	X20	Y20	Z20	X21	Y21	Z21	X22	Y22	Z22	X23	Y23	Z23	X24	Y24	Z24	X25	Y25	Z25	X26	Y26	Z26	X27	Y27	Z27	X28	Y28	Z28	X29	Y29	Z29	X30	Y30	Z30	X31	Y31	Z31	X32	Y32	Z32	X33	Y33	Z33	X34	Y34	Z34	X35	Y35	Z35	X36	Y36	Z36	X37	Y37	Z37	X38	Y38	Z38	X39	Y39	Z39	X40	Y40	Z40	X41	Y41	Z41	X42	Y42	Z42	X43	Y43	Z43	X44	Y44	Z44	X45	Y45	Z45	X46	Y46	Z46	X47	Y47	Z47	X48	Y48	Z48	X49	Y49	Z49	X50	Y50	Z50	X51	Y51	Z51	

80	0.79000000	611.64103	541.22478	-146.51573	561.19284	420.07356	-160.33726	279.52756	238.24434	-221.74517	229.96347	267.55740	-286.19774	284.10369	83.30990	-172.47273	344.26600	71.34674	-229.47902	728.38928	536.82530	-519.42097	786.44397	446.10794	-509.39761	777.17908	90.19926	-510.76193	722.12102	62.32484	-454.19417	923.24556	34.90107	-544.24114	957.14411	62.95911	-478.71993	492.14653	333.17936	-190.41142	498.08686	456.66095	-133.26644	427.54803	366.06169	-147.46204	703.14473	427.66830	-542.76232	748.56835	315.77153	-560.86231	744.50737	759.04055	-153.33828	736.22058	646.72924	-159.95284	689.44575	625.26407	-116.36534	641.27012	761.17196	-104.10929	635.17148	644.08120	-118.50169	786.66294	795.44442	-529.00964	806.16830	658.77986	-523.51026	679.17224	777.19702	-553.34526	698.43335	640.65782	-538.56334	739.57900	1045.25958	-187.74559	549.42409	1085.02293	-295.62955	774.24965	1034.61928	-451.13607	556.99684	1081.83255	-391.88559	638.21425	1530.38756	-534.23154	697.51712	1564.63846	-337.12366	703.77865	1396.76591	-656.86005	773.43050	1470.48945	-466.49629	771.55777	1445.87643	-508.08255	691.15664	1444.41078	-196.68867	581.13459	1238.28536	-146.82741	619.17607	1282.03937	-84.74171	718.08446	1137.15703	-58.00695	756.01435	1026.30282	-23.42261	733.67929	1026.74613	12.58881	696.33110	1212.49028	-693.42427	611.81999	1019.17811	-608.60416	634.58694	1021.26011	-687.98145	721.90685	880.94692	-666.30411	738.72707	760.97938	-677.21375	701.54752	759.29279	-709.40462	659.90958	967.61133	-229.46671	686.73352	949.12356	-440.34790	671.47973	967.22514	-228.36608	685.24342	961.42783	-403.21027	
81	0.80000000	632.09003	542.03518	-144.33374	580.38828	422.18425	-158.48072	295.43205	246.79357	-222.29266	249.64993	278.54406	-287.99750	291.83884	91.85566	-173.45171	353.18630	77.03824	-228.06231	733.68050	537.54779	-520.12520	790.86652	446.14110	-509.97701	777.46586	90.38217	-510.57878	722.28237	62.67243	-454.13423	923.29603	34.88098	-544.26776	957.32858	62.50838	-478.60119	510.02124	336.67974	-188.84221	517.93790	460.20869	-131.81040	445.75571	371.02411	-146.63794	707.34250	428.66080	-543.08553	751.41665	316.23791	-561.21561	759.43635	762.61475	-151.79309	754.13606	650.03403	-157.20451	707.42105	627.82716	-113.91632	655.82707	762.75846	-103.65045	652.72939	645.35472	-116.87490	794.23477	795.38130	-529.62265	812.35470	658.59148	-523.95077	686.69897	778.35729	-554.24100	704.37974	641.59337	-539.46649	748.70994	1047.80267	-189.04386	559.00430	1086.88593	-298.38522	784.24347	1035.42160	-452.44644	567.04439	1083.55914	-394.37584	649.29146	1531.18473	-538.22714	707.76693	1567.13745	-341.33833	715.86417	1397.18659	-659.54728	784.33113	1471.80685	-469.24691	782.52794	1447.01761	-510.71687	700.44060	1448.13363	-199.97339	588.68004	1243.23867	-148.97145	627.27275	1286.87585	-87.13210	725.16881	1141.39389	-59.98289	762.38897	1030.12215	-25.16703	740.22411	1030.98760	10.92406	710.99419	1212.99647	-695.85748	629.26774	1018.54154	-610.63858	652.66582	1020.62566	-689.89828	743.09008	882.42179	-666.79755	763.00455	762.92545	-676.96691	725.93920	760.07068	-709.23718	669.01306	969.95163	-230.84978	696.73056	950.16340	-441.49630	680.77277	968.77492	-229.90160	695.43069	962.71161	-404.79895	
82	0.81000000	652.37042	543.21543	-142.22381	599.73522	424.53921	-156.67237	311.87172	255.00104	-223.24755	269.74908	288.16049	-290.48700	301.22765	100.60525	-174.07248	363.85582	83.22014	-226.00594	739.03108	538.19964	-520.89955	795.45754	446.17768	-510.44987	777.77558	90.57660	-510.44474	722.47379	63.06196	-454.10413	923.33966	34.84140	-544.30110	957.52178	62.08994	-478.51049	528.26564	340.33585	-187.39047	537.84272	463.90920	-130.48897	464.24693	375.99706	-145.88467	711.83076	429.67685	-543.62460	754.57788	316.74599	-561.66091	774.18570	766.33563	-150.27203	771.74575	653.57178	-154.64034	725.10886	630.62690	-111.61367	670.24680	764.50223	-103.18464	670.06640	646.89599	-115.34642	801.65044	795.27928	-530.25600	818.41573	658.36481	-524.41609	694.09120	779.39866	-555.27697	710.28232	642.43501	-540.52320	757.73489	1050.19289	-190.21334	568.43707	1088.51140	-301.07925	794.01516	1036.03477	-453.62238	576.90543	1085.07355	-396.78944	660.28460	1531.91833	-542.01269	717.88744	1569.29336	-345.24472	727.83036	1397.54849	-662.12188	795.06444	1472.96744	-471.84933	793.36849	1448.00307	-513.20111	709.52364	1451.41418	-203.03816	596.04975	1247.72972	-150.88881	635.09895	1291.30804	-89.31440	732.19163	1145.37189	-61.76736	768.87672	1033.76262	-26.77270	746.83794	1034.93667	9.37061	725.62436	1213.55176	-698.07440	646.57808	1017.91752	-612.71200	670.79266	1020.02057	-691.80496	764.26023	884.05980	-667.17321	787.35013	765.15142	-676.57213	750.42873	761.05452	-708.90827	677.97500	972.11888	-232.11993	706.57150	950.99426	-442.51955	689.97631	970.09233	-231.28961	705.46208	963.80738	-406.23809	
83	0.82000000	672.40878	544.77187	-140.19173	619.17381	427.14858	-154.87349	328.85630	262.76192	-224.61527	290.01743	296.23716	-293.62141	312.59159	109.41102	-174.14938	376.52815	89.75581	-223.31314	744.41036	538.80474	-521.68252	800.10053	446.21133	-510.87146	778.09711	90.78536	-510.34210	722.69430	63.47947	-454.09815	923.37581	34.77768	-544.34022	957.73187	61.69889	-478.44016	546.78917	344.09230	-186.07083	557.66962	467.72552	-129.36680	482.89910	380.91377	-145.27050	716.43569	430.68320	-544.26760	757.85927	317.26611	-562.14425	788.74028	770.19784	-148.82141	789.00102	657.33017	-152.29918	742.49053	633.65622	-109.46005	684.52550	766.41660	-102.71029	687.14826	648.71354	-113.90469	809.03471	795.20638	-530.92101	824.51068	658.17706	-524.93166	701.47334	780.35757	-556.40622	716.28773	643.22593	-541.61773	766.69332	1052.42567	-191.31267	577.75200	1089.93270	-303.64584	803.62177	1036.52780	-454.65935	586.60599	1086.39869	-399.08544	671.19291	1532.58434	-545.60583	727.87361	1571.10586	-348.84137	739.66863	1397.81593	-664.59527	805.62070	1473.97282	-474.32587	804.07358	1448.83270	-515.55688	718.38604	1454.24080	-205.88926	603.28204	1251.70723	-152.64680	642.67458	1295.29232	-91.33513	739.16295	1149.03861	-63.36473	775.44315	1037.18319	-28.19024	753.49172	1038.56386	7.96643	740.21404	1214.12044	-700.05367	663.76953	1017.25804	-614.81422	688.95196	1019.41161	-693.68285	785.38894	885.82920	-667.43965	811.71163	767.62810	-676.04250	774.97280	762.22709	-708.43404	686.85466	974.11647	-233.28860	716.28783	951.67676	-443.43844	699.13050	971.25471	-232.56766	715.36429	964.77622	-407.52431	
